<svg xmlns="http://www.w3.org/2000/svg"  viewBox="0 0 48 48" width="48px" height="48px"><path d="M 9.0019531 3.9980469 C 6.2409531 3.9980469 4.0019531 6.2380469 4.0019531 8.9980469 L 4.0019531 12.998047 C 4.0019531 13.550047 4.4499531 13.998047 5.0019531 13.998047 L 11.001953 13.998047 L 11.001953 8.4980469 C 11.001953 8.2230469 11.225953 7.9980469 11.501953 7.9980469 C 11.776953 7.9980469 12.001953 8.2230469 12.001953 8.4980469 L 12.001953 44.998047 L 23.003906 38.998047 L 34.003906 44.998047 L 34.003906 30.84375 L 32.007812 31.886719 L 32.007812 41.636719 L 23.957031 37.244141 C 23.362031 36.920141 22.641875 36.920141 22.046875 37.244141 L 13.998047 41.636719 L 14.003906 8.9960938 C 14.003906 7.3610938 13.215 5.9080937 12 4.9960938 L 13.888672 4.9960938 C 14.412672 5.4120938 14.830531 5.9715312 15.019531 6.6445312 C 15.093531 6.9105313 15.371719 7.0652344 15.636719 6.9902344 C 15.902719 6.9162344 16.059375 6.6380469 15.984375 6.3730469 C 15.837375 5.8530469 15.592156 5.3940469 15.285156 4.9980469 L 28.900391 4.9980469 C 29.418391 5.4140469 29.831531 5.9667656 30.019531 6.6347656 C 30.093531 6.9007656 30.371719 7.0554688 30.636719 6.9804688 C 30.902719 6.9064688 31.057422 6.6282812 30.982422 6.3632812 C 30.953422 6.2602812 30.919812 6.1595469 30.882812 6.0605469 C 31.564812 6.8895469 32.001953 8.0570469 32.001953 8.9980469 C 32.001953 9.0310469 32.002859 9.0637031 32.005859 9.0957031 L 32.005859 18.816406 L 34.001953 14.794922 L 34.001953 8.9980469 C 34.001953 6.2380469 31.761953 3.9980469 29.001953 3.9980469 L 9.0019531 3.9980469 z M 15.498047 7.9941406 C 15.222047 7.9941406 14.998047 8.2191406 14.998047 8.4941406 L 14.998047 10.494141 C 14.998047 10.770141 15.222047 10.994141 15.498047 10.994141 C 15.773047 10.994141 15.998047 10.770141 15.998047 10.494141 L 15.998047 8.4941406 C 15.998047 8.2191406 15.773047 7.9941406 15.498047 7.9941406 z M 30.505859 7.9980469 C 30.229859 7.9980469 30.005859 8.2220469 30.005859 8.4980469 L 30.005859 10.498047 C 30.005859 10.774047 30.229859 10.998047 30.505859 10.998047 C 30.780859 10.998047 31.005859 10.774047 31.005859 10.498047 L 31.005859 8.4980469 C 31.005859 8.2220469 30.780859 7.9980469 30.505859 7.9980469 z M 15.498047 11.994141 C 15.222047 11.994141 14.998047 12.219141 14.998047 12.494141 L 14.998047 14.494141 C 14.998047 14.770141 15.222047 14.994141 15.498047 14.994141 C 15.773047 14.994141 15.998047 14.770141 15.998047 14.494141 L 15.998047 12.494141 C 15.998047 12.219141 15.773047 11.994141 15.498047 11.994141 z M 30.505859 11.998047 C 30.229859 11.998047 30.005859 12.222047 30.005859 12.498047 L 30.005859 14.498047 C 30.005859 14.774047 30.229859 14.998047 30.505859 14.998047 C 30.780859 14.998047 31.005859 14.774047 31.005859 14.498047 L 31.005859 12.498047 C 31.005859 12.222047 30.780859 11.998047 30.505859 11.998047 z M 35.513672 13.998047 L 32.572266 19.923828 L 26.001953 20.873047 L 30.757812 25.486328 L 29.634766 31.998047 L 35.511719 28.923828 L 41.390625 31.998047 L 40.267578 25.486328 L 45.023438 20.873047 L 38.451172 19.923828 L 35.513672 13.998047 z M 15.498047 15.994141 C 15.222047 15.994141 14.998047 16.219141 14.998047 16.494141 L 14.998047 18.494141 C 14.998047 18.770141 15.222047 18.994141 15.498047 18.994141 C 15.773047 18.994141 15.998047 18.770141 15.998047 18.494141 L 15.998047 16.494141 C 15.998047 16.219141 15.773047 15.994141 15.498047 15.994141 z M 30.505859 15.998047 C 30.229859 15.998047 30.005859 16.222047 30.005859 16.498047 L 30.005859 18.498047 C 30.005859 18.774047 30.229859 18.998047 30.505859 18.998047 C 30.780859 18.998047 31.005859 18.774047 31.005859 18.498047 L 31.005859 16.498047 C 31.005859 16.222047 30.780859 15.998047 30.505859 15.998047 z M 15.498047 19.994141 C 15.222047 19.994141 14.998047 20.219141 14.998047 20.494141 L 14.998047 22.494141 C 14.998047 22.770141 15.222047 22.994141 15.498047 22.994141 C 15.773047 22.994141 15.998047 22.770141 15.998047 22.494141 L 15.998047 20.494141 C 15.998047 20.219141 15.773047 19.994141 15.498047 19.994141 z M 15.498047 23.994141 C 15.222047 23.994141 14.998047 24.219141 14.998047 24.494141 L 14.998047 26.494141 C 14.998047 26.770141 15.222047 26.994141 15.498047 26.994141 C 15.773047 26.994141 15.998047 26.770141 15.998047 26.494141 L 15.998047 24.494141 C 15.998047 24.219141 15.773047 23.994141 15.498047 23.994141 z M 15.498047 27.994141 C 15.222047 27.994141 14.998047 28.219141 14.998047 28.494141 L 14.998047 30.494141 C 14.998047 30.770141 15.222047 30.994141 15.498047 30.994141 C 15.773047 30.994141 15.998047 30.770141 15.998047 30.494141 L 15.998047 28.494141 C 15.998047 28.219141 15.773047 27.994141 15.498047 27.994141 z M 15.498047 31.994141 C 15.222047 31.994141 14.998047 32.219141 14.998047 32.494141 L 14.998047 34.494141 C 14.998047 34.770141 15.222047 34.994141 15.498047 34.994141 C 15.773047 34.994141 15.998047 34.770141 15.998047 34.494141 L 15.998047 32.494141 C 15.998047 32.219141 15.773047 31.994141 15.498047 31.994141 z M 30.998047 32.412109 L 30.097656 32.884766 C 30.066656 32.900766 30.036859 32.915734 30.005859 32.927734 L 30.005859 34.498047 C 30.005859 34.774047 30.229859 34.999047 30.505859 34.998047 C 30.780859 34.998047 31.005859 34.774047 31.005859 34.498047 L 31.005859 32.498047 C 31.005859 32.469047 31.003047 32.440109 30.998047 32.412109 z M 23 35.003906 C 22.62025 35.004156 22.239094 35.059969 21.871094 35.167969 C 21.607094 35.244969 21.456203 35.523109 21.533203 35.787109 C 21.611203 36.053109 21.888297 36.205953 22.154297 36.126953 C 22.705297 35.965953 23.293703 35.965953 23.845703 36.126953 C 24.110703 36.203953 24.389797 36.051109 24.466797 35.787109 C 24.544797 35.522109 24.391953 35.245016 24.126953 35.166016 C 23.758953 35.058016 23.37975 35.003656 23 35.003906 z M 30.501953 35.996094 C 30.225953 35.996094 30.001953 36.223094 30.001953 36.496094 L 30.001953 38.267578 L 29.525391 38.007812 C 29.282391 37.875813 28.979656 37.964078 28.847656 38.205078 C 28.715656 38.448078 28.803875 38.752766 29.046875 38.884766 L 30.265625 39.550781 C 30.597625 39.731781 31.005859 39.490375 31.005859 39.109375 L 31.001953 36.496094 C 31.001953 36.223094 30.776953 35.996094 30.501953 35.996094 z M 15.501953 35.998047 C 15.225953 35.998047 15.001953 36.225047 15.001953 36.498047 L 14.998047 39.109375 C 14.998047 39.489375 15.404328 39.730781 15.736328 39.550781 L 16.951172 38.888672 C 17.194172 38.754672 17.284344 38.451984 17.152344 38.208984 C 17.020344 37.965984 16.715656 37.877766 16.472656 38.009766 L 16.001953 38.265625 L 16.001953 36.498047 C 16.001953 36.225047 15.776953 35.998047 15.501953 35.998047 z M 25.824219 36.033203 C 25.630016 36.013984 25.434938 36.110266 25.335938 36.291016 C 25.203938 36.534016 25.292156 36.838703 25.535156 36.970703 L 27.291016 37.927734 C 27.534016 38.059734 27.837703 37.970562 27.970703 37.726562 C 28.102703 37.485562 28.012531 37.180828 27.769531 37.048828 L 26.013672 36.091797 C 25.952922 36.058547 25.888953 36.039609 25.824219 36.033203 z M 20.173828 36.035156 C 20.109344 36.041719 20.044625 36.0605 19.984375 36.09375 L 18.228516 37.050781 C 17.985516 37.182781 17.897297 37.487469 18.029297 37.730469 C 18.161297 37.971469 18.464031 38.061688 18.707031 37.929688 L 20.464844 36.972656 C 20.707844 36.840656 20.796063 36.535969 20.664062 36.292969 C 20.563562 36.110719 20.367281 36.015469 20.173828 36.035156 z M 13.001953 47 C 12.174953 47 10.001953 47.219047 10.001953 47.498047 C 10.001953 47.776047 12.174953 47.998047 13.001953 47.998047 C 15.753953 47.998047 23.001953 47.776047 23.001953 47.498047 C 23.001953 47.219047 15.753953 47 13.001953 47 z M 23.001953 47.498047 C 23.001953 47.776047 30.248953 47.998047 33.001953 47.998047 C 33.828953 47.998047 36.001953 47.776047 36.001953 47.498047 C 36.001953 47.219047 33.828953 47 33.001953 47 C 30.248953 47 23.001953 47.219047 23.001953 47.498047 z"/></svg>