<svg xmlns="http://www.w3.org/2000/svg"  viewBox="0 0 48 48" width="48px" height="48px"><path d="M 24.001953 3.9980469 C 11.857953 3.9980469 2.0019531 13.854047 2.0019531 25.998047 C 2.0019531 35.895561 8.5500963 44.272355 17.546875 47.033203 C 10.265367 47.103499 5.0019531 47.284234 5.0019531 47.5 C 5.0019531 47.776 13.513953 48.001953 24.001953 48.001953 C 34.489953 48.001953 43.001953 47.776 43.001953 47.5 C 43.001953 47.28425 37.737695 47.103511 30.457031 47.033203 C 39.45381 44.272355 46.003906 35.895561 46.003906 25.998047 C 46.003906 13.854047 36.145953 3.9980469 24.001953 3.9980469 z M 26.679688 6.0175781 C 27.482334 5.9764258 28.279531 6.3560938 28.769531 7.1054688 C 29.265531 7.8634688 30.394188 8.2301563 31.242188 7.9101562 C 32.582188 7.4011562 33.996 8.1188594 34.375 9.5058594 C 34.611 10.377859 35.569609 11.077203 36.474609 11.033203 C 37.907609 10.962203 39.033844 12.084578 38.964844 13.517578 C 38.920844 14.421578 39.615281 15.381094 40.488281 15.621094 C 41.873281 15.999094 42.596844 17.413906 42.089844 18.753906 C 41.766844 19.601906 42.131719 20.728609 42.886719 21.224609 C 44.087719 22.009609 44.338406 23.580266 43.441406 24.697266 C 42.873406 25.404266 42.871453 26.589875 43.439453 27.296875 C 44.337453 28.415875 44.093625 29.983484 42.890625 30.771484 C 42.133625 31.266484 41.765937 32.395234 42.085938 33.240234 C 42.596937 34.583234 41.876188 35.999953 40.492188 36.376953 C 39.619188 36.613953 38.919891 37.572562 38.962891 38.476562 C 39.033891 39.909562 37.911516 41.033844 36.478516 40.964844 C 35.574516 40.920844 34.615 41.615281 34.375 42.488281 C 33.998 43.873281 32.583188 44.598844 31.242188 44.089844 C 30.397187 43.767844 29.268484 44.133625 28.771484 44.890625 C 27.986484 46.090625 26.419828 46.338406 25.298828 45.441406 C 24.593828 44.873406 23.408172 44.872453 22.701172 45.439453 C 21.582172 46.337453 20.014562 46.092531 19.226562 44.894531 C 18.730563 44.136531 17.602859 43.767891 16.755859 44.087891 C 15.413859 44.596891 13.996141 43.877141 13.619141 42.494141 C 13.382141 41.619141 12.423531 40.921844 11.519531 40.964844 C 10.087531 41.035844 8.96025 39.913469 9.03125 38.480469 C 9.07525 37.576469 8.3788594 36.615953 7.5058594 36.376953 C 6.1218594 36.000953 5.39725 34.586188 5.90625 33.242188 C 6.22725 32.396188 5.8644219 31.267484 5.1074219 30.771484 C 3.9064219 29.986484 3.6556875 28.419781 4.5546875 27.300781 C 5.1216875 26.593781 5.1236406 25.408172 4.5566406 24.701172 C 3.6586406 23.583172 3.9035156 22.015516 5.1035156 21.228516 C 5.8615156 20.732516 6.2301563 19.604813 5.9101562 18.757812 C 5.4011562 17.417812 6.1199063 15.997094 7.5039062 15.621094 C 8.3789063 15.384094 9.0762031 14.424484 9.0332031 13.521484 C 8.9622031 12.088484 10.084531 10.964203 11.519531 11.033203 C 12.423531 11.077203 13.382094 10.382766 13.621094 9.5097656 C 13.996094 8.1247656 15.412906 7.3992031 16.753906 7.9082031 C 17.600906 8.2292031 18.730563 7.865375 19.226562 7.109375 C 20.011563 5.908375 21.578266 5.6576406 22.697266 6.5566406 C 23.402266 7.1236406 24.587922 7.1236406 25.294922 6.5566406 C 25.714547 6.2195156 26.1981 6.0422695 26.679688 6.0175781 z M 26.726562 7.015625 C 26.448775 7.0310937 26.169375 7.1368125 25.921875 7.3359375 C 24.849875 8.1959375 23.143266 8.1959375 22.072266 7.3359375 C 21.414266 6.8079375 20.5255 6.94825 20.0625 7.65625 C 19.3075 8.80725 17.682437 9.33075 16.398438 8.84375 C 15.611437 8.54475 14.808938 8.9544844 14.585938 9.7714844 C 14.224938 11.098484 12.841703 12.09925 11.470703 12.03125 C 10.628703 11.99125 9.9922031 12.628656 10.033203 13.472656 C 10.099203 14.846656 9.090625 16.225938 7.765625 16.585938 C 6.954625 16.806937 6.5447031 17.609344 6.8457031 18.402344 C 7.3317031 19.689344 6.8013438 21.3105 5.6523438 22.0625 C 4.9483437 22.5235 4.8068906 23.414219 5.3378906 24.074219 C 6.1978906 25.146219 6.1959375 26.854828 5.3359375 27.923828 C 4.8079375 28.581828 4.94825 29.470594 5.65625 29.933594 C 6.80625 30.688594 7.33275 32.314656 6.84375 33.597656 C 6.54575 34.386656 6.9535313 35.189156 7.7695312 35.410156 C 9.0955313 35.771156 10.09925 37.154344 10.03125 38.527344 C 9.99025 39.366344 10.626609 40.003891 11.474609 39.962891 C 12.848609 39.898891 14.225938 40.905469 14.585938 42.230469 C 14.807938 43.042469 15.610344 43.451391 16.402344 43.150391 C 17.689344 42.664391 19.3105 43.19475 20.0625 44.34375 C 20.5235 45.04775 21.414219 45.189203 22.074219 44.658203 C 23.146219 43.798203 24.855828 43.799156 25.923828 44.660156 C 26.583828 45.190156 27.473547 45.048844 27.935547 44.339844 C 28.688547 43.190844 30.314609 42.661391 31.599609 43.150391 C 32.383609 43.449391 33.187156 43.039656 33.410156 42.222656 C 33.772156 40.895656 35.154344 39.894891 36.527344 39.962891 C 37.368344 40.002891 38.005844 39.365484 37.964844 38.521484 C 37.897844 37.145484 38.904516 35.768203 40.228516 35.408203 C 41.041516 35.185203 41.450391 34.38475 41.150391 33.59375 C 40.662391 32.30875 41.192797 30.684594 42.341797 29.933594 C 43.047797 29.471594 43.187203 28.579922 42.658203 27.919922 C 41.797203 26.847922 41.801109 25.139312 42.662109 24.070312 C 43.189109 23.414312 43.048891 22.523594 42.337891 22.058594 C 41.188891 21.304594 40.666297 19.681438 41.154297 18.398438 C 41.450297 17.610437 41.041609 16.808937 40.224609 16.585938 C 38.897609 16.223938 37.896844 14.84175 37.964844 13.46875 C 38.004844 12.62775 37.367438 11.99025 36.523438 12.03125 C 35.149437 12.09625 33.769156 11.092578 33.410156 9.7675781 C 33.186156 8.9515781 32.386703 8.54475 31.595703 8.84375 C 30.310703 9.33175 28.685594 8.8033437 27.933594 7.6523438 C 27.645469 7.2117187 27.189541 6.9898438 26.726562 7.015625 z M 19.009766 10.998047 C 19.089266 10.995672 19.156609 11.004031 19.224609 11.019531 C 19.760609 11.143531 20.098609 11.68175 19.974609 12.21875 C 19.897609 12.55475 19.656828 12.811516 19.173828 12.978516 C 17.008828 13.595516 15.146234 14.324594 13.990234 15.683594 C 13.874234 15.825594 13.681234 15.898516 13.490234 15.853516 C 13.221234 15.792516 13.053281 15.513906 13.113281 15.253906 C 13.426281 13.894906 15.833656 11.612063 18.722656 11.039062 C 18.839656 11.013063 18.930266 11.000422 19.009766 10.998047 z M 35 18.996094 C 35.531 18.996094 36 19.140625 36 19.515625 C 36 20.298625 34.11575 21.935188 32.96875 22.867188 C 28.98375 26.105187 26.936828 28.095797 23.673828 33.091797 C 22.895828 34.282797 21.069563 34.285906 20.351562 33.128906 C 17.719563 29.027906 14 26.840094 14 25.996094 C 14 25.543094 14.304891 24.996094 15.337891 24.996094 C 16.788891 24.996094 20.292938 26.6775 21.960938 28.5625 C 24.083938 25.6325 26.975891 22.764984 30.587891 20.833984 C 31.591891 20.297984 33.745 18.996094 35 18.996094 z"/></svg>