<svg xmlns="http://www.w3.org/2000/svg"  viewBox="0 0 48 48" width="48px" height="48px"><path d="M 33 1.9980469 C 29.688 1.9980469 27 4.6860469 27 7.9980469 C 27 8.6230469 27.094438 9.2279219 27.273438 9.7949219 L 17.164062 17.373047 C 17.470063 17.600047 17.757484 17.853953 18.021484 18.126953 L 27.720703 10.853516 C 27.880703 11.147516 28.064531 11.426453 28.269531 11.689453 L 18.666016 18.890625 C 19.039016 19.402625 19.343406 19.968266 19.566406 20.572266 L 29.673828 12.992188 C 30.627828 13.628187 31.769 13.998047 33 13.998047 C 36.312 13.998047 39 11.310047 39 7.9980469 C 39 4.6860469 36.312 1.9980469 33 1.9980469 z M 31.994141 3.6894531 C 32.383953 3.6863125 32.755969 3.915125 32.917969 4.296875 C 33.134969 4.803875 32.899531 5.3923281 32.394531 5.6113281 C 29.200531 6.9743281 29.942828 8.1645625 29.423828 7.9765625 C 28.902828 7.7875625 27.782469 5.4244375 31.605469 3.7734375 C 31.732469 3.7184375 31.864203 3.6905 31.994141 3.6894531 z M 12.998047 16.998047 C 9.6860469 16.998047 6.9980469 19.686047 6.9980469 22.998047 C 6.9980469 26.310047 9.6860469 28.998047 12.998047 28.998047 C 14.227047 28.998047 15.372219 28.627188 16.324219 27.992188 L 26.431641 35.572266 C 26.654641 34.969266 26.957125 34.404578 27.328125 33.892578 L 17.138672 26.25 C 16.917672 26.083 16.872109 25.770781 17.037109 25.550781 C 17.204109 25.329781 17.516328 25.284219 17.736328 25.449219 L 27.972656 33.126953 C 28.238656 32.853953 28.525031 32.601047 28.832031 32.373047 L 18.724609 24.794922 C 18.903609 24.227922 18.998047 23.623047 18.998047 22.998047 C 18.998047 19.686047 16.310047 16.998047 12.998047 16.998047 z M 11.994141 18.689453 C 12.383953 18.686312 12.755969 18.915125 12.917969 19.296875 C 13.134969 19.803875 12.899531 20.392328 12.394531 20.611328 C 9.2005312 21.974328 9.9428281 23.164562 9.4238281 22.976562 C 8.9028281 22.787562 7.7824687 20.424437 11.605469 18.773438 C 11.732469 18.718438 11.864203 18.6905 11.994141 18.689453 z M 32.998047 31.998047 C 29.686047 31.998047 26.998047 34.686047 26.998047 37.998047 C 26.998047 41.310047 29.686047 43.998047 32.998047 43.998047 C 36.310047 43.998047 38.998047 41.310047 38.998047 37.998047 C 38.998047 34.686047 36.310047 31.998047 32.998047 31.998047 z M 31.994141 33.689453 C 32.383953 33.686313 32.755969 33.915125 32.917969 34.296875 C 33.134969 34.803875 32.899531 35.392328 32.394531 35.611328 C 29.200531 36.974328 29.942828 38.164563 29.423828 37.976562 C 28.902828 37.787563 27.782469 35.424438 31.605469 33.773438 C 31.732469 33.718438 31.864203 33.6905 31.994141 33.689453 z M 32.998047 47 C 27.766047 47 13.998047 47.219047 13.998047 47.498047 C 13.998047 47.776047 27.766047 47.998047 32.998047 47.998047 C 34.375047 47.998047 37.998047 47.776047 37.998047 47.498047 C 37.998047 47.219047 34.375047 47 32.998047 47 z"/></svg>