<?xml version="1.0"?>
<svg width="48" height="48" xmlns="http://www.w3.org/2000/svg" xmlns:svg="http://www.w3.org/2000/svg" version="1.1" xml:space="preserve">
 <g class="layer">
  <title>Layer 1</title>
  <g id="svg_1">
   <g id="svg_2">
    <path d="m24.03,21.78c3.54,0 6.38,-2.83 6.38,-6.3c0,-3.48 -2.84,-6.3 -6.38,-6.3c-3.51,0 -6.36,2.82 -6.36,6.3c0,3.48 2.85,6.3 6.36,6.3z" fill="#4a4543" id="svg_3"/>
    <path d="m29.15,22.81l-10.22,0c-1.83,0 -3.32,1.66 -3.32,3.69l0,10.14c0,0.11 0.06,0.21 0.06,0.33l16.73,0c0.01,-0.12 0.06,-0.22 0.06,-0.33l0,-10.14c0.01,-2.03 -1.49,-3.69 -3.31,-3.69z" fill="#4a4543" id="svg_4"/>
    <path d="m41.19,24.79c2.84,0 5.11,-2.26 5.11,-5.05s-2.28,-5.05 -5.11,-5.05c-2.82,0 -5.1,2.26 -5.1,5.05c-0.01,2.79 2.28,5.05 5.1,5.05z" fill="#4a4543" id="svg_5"/>
    <path d="m45.3,25.61l-8.19,0c-1.47,0 -2.67,1.33 -2.67,2.96l0,8.13c0,0.09 0.04,0.17 0.05,0.27l13.42,0c0.01,-0.1 0.05,-0.18 0.05,-0.27l0,-8.13c0.01,-1.63 -1.19,-2.96 -2.66,-2.96z" fill="#4a4543" id="svg_6"/>
    <path d="m6.82,24.79c2.83,0 5.11,-2.26 5.11,-5.05s-2.28,-5.05 -5.11,-5.05c-2.82,0 -5.1,2.26 -5.1,5.05s2.28,5.05 5.1,5.05l0,0z" fill="#4a4543" id="svg_7"/>
    <path d="m10.97,25.61l-8.23,0c-1.47,0 -2.67,1.33 -2.67,2.96l0,8.13c0,0.09 0.04,0.17 0.05,0.27l13.48,0c0.01,-0.1 0.04,-0.18 0.04,-0.27l0,-8.13c0,-1.63 -1.2,-2.96 -2.67,-2.96z" fill="#4a4543" id="svg_8" transform="matrix(1 0 0 1 0 0)"/>
   </g>
   <g id="svg_9"/>
   <g id="svg_10"/>
   <g id="svg_11"/>
   <g id="svg_12"/>
   <g id="svg_13"/>
   <g id="svg_14"/>
   <g id="svg_15"/>
   <g id="svg_16"/>
   <g id="svg_17"/>
   <g id="svg_18"/>
   <g id="svg_19"/>
   <g id="svg_20"/>
   <g id="svg_21"/>
   <g id="svg_22"/>
   <g id="svg_23"/>
  </g>
 </g>
</svg>