<?xml version="1.0"?>
<svg width="48" height="48" xmlns="http://www.w3.org/2000/svg" xmlns:svg="http://www.w3.org/2000/svg" class="si-glyph si-glyph-contact-book" version="1.1">
 <title>Contact-book</title>
 <g class="layer">
  <title>Layer 1</title>
  <g fill="none" fill-rule="evenodd" id="svg_1">
   <g fill="#434343" id="svg_2">
    <path class="si-glyph-fill" d="m3.6,9.12l3.22,0l0,3.57l-3.22,0l0,23.14l3.13,0l0,3.28l-3.13,0l0,8.27l37.62,0l0,-46.88l-37.62,0l0,8.62l0,0zm10.72,4.34c0.06,-0.06 0.85,-0.59 1.11,-0.8l0,0c0,0 0.03,0 0.03,-0.03c0.03,0 0.06,-0.03 0.09,-0.06l0,0.03c0.47,-0.27 0.95,-0.44 1.49,-0.5c1.45,-0.21 2.53,1.21 3.22,2.01c0.7,0.83 1.64,2.1 1.52,2.98c-0.06,0.53 -0.7,1 -1.33,1.48l0,-0.03c-0.19,0.18 -0.92,0.89 -0.98,0.97c-0.35,0.53 -0.73,1.71 -0.19,2.63c0.51,0.86 1.55,2.27 2.5,3.45c1.01,1.12 2.28,2.39 3.07,3.07c0.82,0.68 2.18,0.65 2.81,0.47c0.13,-0.03 1.14,-0.59 1.26,-0.65c0.66,-0.41 1.33,-0.89 1.93,-0.8c0.95,0.09 2.05,1.27 2.75,2.07c0.7,0.83 1.93,2.13 1.36,3.37c-0.22,0.47 -0.54,0.83 -0.92,1.18l0,0.03l-0.06,0.03c0,0 0,0.03 0,0.03l-0.03,0c-0.25,0.18 -1.01,0.74 -1.11,0.8c-1.07,0.65 -3.38,1.45 -6.61,-0.35c-2.4,-1.3 -5.06,-3.57 -7.59,-6.38l0,0c-0.13,-0.12 -0.22,-0.27 -0.35,-0.41c-0.13,-0.12 -0.22,-0.27 -0.35,-0.38l0,-0.03c-2.37,-2.89 -4.11,-5.79 -4.9,-8.24c-1.11,-3.31 0.32,-5.14 1.26,-5.93l0,0z" fill="#f8f2f0" id="svg_3"/>
    <rect class="si-glyph-fill" fill="#f8f2f0" height="2.92" id="svg_4" width="3.1" x="0.25" y="9.36"/>
    <rect class="si-glyph-fill" fill="#f8f2f0" height="2.78" id="svg_5" width="3.1" x="0.25" y="35.93"/>
    <rect class="si-glyph-fill" fill="#f8f2f0" height="8.5" id="svg_6" width="2.91" x="44.51" y="6.4"/>
    <rect class="si-glyph-fill" fill="#f8f2f0" height="8.41" id="svg_7" width="2.81" x="44.51" y="32.97"/>
    <rect class="si-glyph-fill" fill="#f8f2f0" height="11.51" id="svg_8" width="2.85" x="44.51" y="18.21"/>
   </g>
  </g>
 </g>
</svg>