<?xml version="1.0"?>
<svg width="48" height="48" xmlns="http://www.w3.org/2000/svg" xmlns:svg="http://www.w3.org/2000/svg">
 <g class="layer">
  <title>Layer 1</title>
  <path d="m25,1c-0.77,0 -1.53,0.32 -2.12,0.94l-21,22.43c-1.17,1.26 -1.17,3.28 0,4.53c1.13,1.22 2.93,1.26 4.1,0.15l1.15,-1.23c0.2,-0.2 0.52,-0.2 0.71,0c0.2,0.21 0.2,0.56 0,0.76l-1.01,1.08c-0.26,0.27 -0.53,0.5 -0.83,0.68l0,16.59l0,0c-1.1,0 -4,0.25 -4,0.54c0,0.29 2.9,0.52 4,0.52l0,0l0,0l38,0l0,0l0,0c1.1,0 4,-0.23 4,-0.52c0,-0.3 -2.9,-0.54 -4,-0.54l0,0.01l0,-16.6c-0.3,-0.18 -0.57,-0.42 -0.82,-0.68l-1.02,-1.09c-0.19,-0.19 -0.19,-0.53 0,-0.75c0.2,-0.2 0.51,-0.2 0.71,0l1.15,1.23c1.18,1.11 2.98,1.06 4.1,-0.15c1.18,-1.25 1.18,-3.27 0,-4.53l-8.12,-8.67l0,-8.29l1.01,-1.07l0,-1.07l-7.01,0l0,1.07l1,1.07l0,1.44l1.84,1.97c0.2,0.2 0.2,0.54 0,0.76c-0.19,0.19 -0.51,0.19 -0.71,0l-9.01,-9.63c-0.58,-0.62 -1.35,-0.94 -2.12,-0.94zm0,2.15c0.26,0 0.51,0.1 0.71,0.31l21,22.43c0.39,0.41 0.39,1.09 0,1.51c-0.39,0.42 -1.03,0.42 -1.42,0l-19.58,-20.93c-0.39,-0.42 -1.02,-0.42 -1.42,0l-19.58,20.93c-0.39,0.41 -1.03,0.41 -1.42,0c-0.39,-0.42 -0.39,-1.1 0,-1.51l21,-22.43c0.2,-0.21 0.45,-0.31 0.71,-0.31zm0,16.01c3.11,0 5.92,1.29 7.86,3.34c0.19,0.21 0.19,0.54 0,0.76c-0.2,0.21 -0.51,0.21 -0.71,0c-1.75,-1.85 -4.3,-3.03 -7.15,-3.03c-2.85,0 -5.4,1.19 -7.15,3.03c-0.19,0.21 -0.51,0.21 -0.71,0c-0.19,-0.21 -0.19,-0.54 0.01,-0.76c1.94,-2.05 4.74,-3.34 7.85,-3.34zm-5.01,5.34l10.01,0l0,19.23l-10.01,0l0,-19.23zm1.51,5.34c-0.28,0 -0.5,0.25 -0.5,0.54l0,7.45c0,0.29 0.22,0.52 0.5,0.52c0.27,0 0.5,-0.23 0.5,-0.52l0,-7.45c0,-0.3 -0.23,-0.54 -0.5,-0.54zm-3.5,14.95l14,0c0.55,0 1,0.48 1,1.07l0,1.07l-16,0l0,-1.07c0,-0.59 0.45,-1.07 1,-1.07z" fill="#f8f2f0" id="svg_1"/>
 </g>
</svg>